PathFileType	4	(X/Y/Z)	C:/Users/opensim2020/Desktop/walking_exp_matlab/subject01_walking09_straight_04.trc	
DataRate	CameraRate	NumFrames	NumMarkers	Units	OrigDataRate	OrigDataStartFrame	OrigNumFrames	
100.00	100.00	8	43	mm	100.00	3960	292	
Frame#	Time	LFHD			RFHD			LBHD			RBHD			C7			T10			CLAV			STRN			RBAK			LSHO			LUPA			LELB			LFRM			LWRA			LWRB			LFIN			RSHO			RUPA			RELB			RFRM			RWRA			RWRB			RFIN			LASI			RASI			LPSI			RPSI			LTHI			LKNE			LTIB			LANK			LHEE			LTOE			RTHI			RKNE			RTIB			RANK			RHEE			RTOE			*39			*40			*41			*42			
		X1	Y1	Z1	X2	Y2	Z2	X3	Y3	Z3	X4	Y4	Z4	X5	Y5	Z5	X6	Y6	Z6	X7	Y7	Z7	X8	Y8	Z8	X9	Y9	Z9	X10	Y10	Z10	X11	Y11	Z11	X12	Y12	Z12	X13	Y13	Z13	X14	Y14	Z14	X15	Y15	Z15	X16	Y16	Z16	X17	Y17	Z17	X18	Y18	Z18	X19	Y19	Z19	X20	Y20	Z20	X21	Y21	Z21	X22	Y22	Z22	X23	Y23	Z23	X24	Y24	Z24	X25	Y25	Z25	X26	Y26	Z26	X27	Y27	Z27	X28	Y28	Z28	X29	Y29	Z29	X30	Y30	Z30	X31	Y31	Z31	X32	Y32	Z32	X33	Y33	Z33	X34	Y34	Z34	X35	Y35	Z35	X36	Y36	Z36	X37	Y37	Z37	X38	Y38	Z38	X39	Y39	Z39	X40	Y40	Z40	X41	Y41	Z41	X42	Y42	Z42	X43	Y43	Z43	

74	0.730	1485.45605	663.98456	1668.29297	1373.38928	647.33051	1674.44360	1474.36597	781.69757	1627.89526	1354.53784	767.30304	1633.08484	1427.23938	821.92657	1428.62891	1420.80566	846.88855	1134.15771	1430.92334	675.54980	1367.21082	1440.64673	626.28357	1214.70129	1349.49207	865.59003	1230.53381	1589.77466	743.04004	1395.36987	1679.76904	755.19159	1213.97095	1689.53870	745.43854	1061.80090	1716.21692	679.18512	968.20624	1696.99744	572.92419	879.25208	1723.62805	623.23761	859.76782	1737.63464	555.95386	810.73578	1276.59863	735.02911	1392.33655	1180.20898	794.09906	1189.18433	1182.09363	794.53485	1065.02100	1152.83472	773.74506	946.94312	1174.53992	700.99219	825.20789	1133.50562	743.71625	829.13629	1137.80835	711.79144	747.86182	1539.42444	679.98798	926.88800	1324.41858	660.06653	936.92065	1470.70227	859.77521	943.59821	1325.96301	845.80206	947.30841	1587.33044	758.41809	595.69879	1576.35535	794.25470	463.88614	1586.50427	921.56873	321.87732	1541.20398	1044.47461	135.88161	1486.32568	1095.31812	129.95212	1544.18909	933.62512	38.16180	1264.31836	653.34772	608.50671	1295.93433	613.88861	456.49686	1286.19348	641.14008	281.88550	1333.69995	644.16626	77.29242	1382.06079	693.30560	38.24416	1338.46924	504.34155	39.96080	1395.68286	658.14648	1708.52649	-3101.92529	1973.09265	1023.27417	-3140.68433	2012.51038	1022.02112			 
75	0.740	1483.22937	657.39081	1668.96655	1371.21045	640.68536	1674.94812	1472.11218	775.15570	1628.65857	1352.37134	760.68817	1633.68347	1425.38989	815.27148	1428.99634	1419.12756	839.59406	1134.49683	1428.94812	668.71960	1368.03662	1438.55664	619.09631	1215.63098	1347.59045	858.39758	1230.80396	1587.82007	736.04657	1396.04065	1678.08655	748.67603	1214.75085	1687.50732	740.44867	1062.35608	1714.33545	674.85687	968.25763	1695.28259	569.02057	878.71497	1721.91492	619.46265	859.51904	1735.71692	552.32996	809.87445	1274.65198	728.52386	1392.98132	1178.26819	787.17188	1189.77661	1180.30310	787.13202	1065.48767	1151.12268	765.78424	947.47235	1172.92554	692.44647	826.18781	1131.96704	734.97107	829.70728	1136.21838	702.76746	748.55005	1537.13538	672.10376	927.60797	1322.36780	652.34790	937.39813	1469.04614	852.01245	944.33215	1324.28320	838.11322	948.03888	1586.59021	747.60516	595.67004	1576.69580	781.93085	463.77927	1586.64209	912.27124	324.53818	1542.01257	1039.09192	141.16272	1486.67285	1089.21680	137.25479	1544.04480	932.87329	38.22982	1263.40149	649.30707	608.10394	1295.45947	610.19604	456.01822	1286.28625	638.64105	281.68222	1333.88220	643.83539	77.05140	1382.16541	693.18536	38.25856	1338.94238	503.80707	39.36269	1393.58374	651.74585	1708.77502	-3101.89258	1973.22131	1023.49280	-3140.70605	2012.51135	1021.92029			 
76	0.750	1481.14551	650.89038	1669.62463	1369.08691	634.05994	1675.40295	1470.02649	768.68079	1629.45923	1350.17212	754.07837	1634.22400	1423.59106	808.57184	1429.32410	1417.32751	832.38873	1134.82642	1426.99658	661.97717	1368.73486	1436.48767	611.94379	1216.44116	1345.62146	851.23407	1231.09265	1585.96680	729.09552	1396.62170	1676.45300	742.24677	1215.44141	1685.51038	735.50061	1062.85144	1712.52100	670.58685	968.23627	1693.49194	565.33124	877.92108	1719.98462	615.89337	859.09039	1734.06860	549.08478	809.15179	1272.88757	721.76044	1393.54980	1176.29565	780.23828	1190.31982	1178.40247	779.62482	1065.92029	1149.33228	757.76715	947.99066	1171.37866	683.77649	827.00189	1130.27551	726.37042	830.40143	1134.71765	693.64178	749.35376	1534.99805	664.34955	928.38409	1320.47717	644.89996	937.78607	1467.30554	844.49951	944.95062	1322.47131	830.50598	948.72919	1586.14685	736.33716	595.61652	1577.24866	769.02222	463.57648	1587.11902	902.44897	327.69162	1542.89648	1033.12842	146.92996	1486.94751	1082.35498	145.01266	1543.97827	932.37567	38.32631	1262.54956	645.46490	607.70111	1294.70251	606.60693	455.28580	1285.82678	636.58936	281.29071	1334.18262	643.48047	76.96726	1382.26392	693.10712	38.30102	1339.44287	503.40607	38.92366	1391.35864	645.21582	1709.24109	-3102.05493	1973.06030	1023.83679	-3140.70239	2012.54944	1022.07361			 
77	0.760	1479.02673	644.30731	1670.21008	1366.95618	627.44092	1675.65820	1467.89832	762.08398	1630.14160	1348.04028	747.45068	1634.70337	1421.83093	801.87219	1429.64673	1415.40149	825.16876	1135.02380	1425.18274	655.12915	1369.36682	1434.41931	604.80585	1217.23804	1343.67639	844.15112	1231.39172	1584.15063	722.22357	1397.11243	1674.64490	736.01434	1215.97607	1683.58655	730.56238	1063.30688	1710.56287	666.42316	968.05194	1691.80176	561.70074	877.10388	1718.48096	612.53607	858.67902	1732.24792	545.86310	808.09192	1271.04077	714.97430	1394.03345	1174.26038	773.28424	1190.89404	1176.49951	772.14471	1066.35632	1147.42664	749.51782	948.40790	1169.74646	674.96228	827.90448	1128.82434	717.60345	831.07330	1133.27698	684.32922	750.25220	1532.82520	656.87537	929.00159	1318.55957	637.59961	938.00476	1465.45178	837.16406	945.42847	1320.59094	823.08380	949.40747	1586.11084	724.80298	595.67462	1578.00122	755.68597	463.43347	1587.63684	892.23798	331.04077	1543.65210	1026.42542	152.77066	1487.06360	1074.52515	152.88190	1543.79419	931.82751	38.64775	1261.47961	641.20374	607.44025	1293.86462	603.41174	454.74924	1285.26331	634.92596	280.74603	1334.50220	643.03400	77.08369	1382.52173	693.00873	38.31034	1339.63904	502.91766	38.39799	1389.18286	638.44604	1709.68604	-3101.91626	1973.16028	1023.49133	-3140.78613	2012.52100	1021.99786			 
78	0.770	1477.02319	637.72717	1670.70886	1364.96924	620.79346	1676.06458	1465.80981	755.54572	1630.75647	1346.00037	740.77405	1635.10315	1420.07983	795.19397	1429.95056	1413.46997	817.98004	1135.19556	1423.45667	648.36523	1370.03540	1432.53198	597.79254	1217.81335	1341.63123	837.12195	1231.65491	1582.39624	715.39880	1397.47461	1672.77209	729.95947	1216.31335	1681.69873	725.54041	1063.68103	1708.77856	662.27734	967.89014	1690.13867	558.23846	876.13208	1716.53699	609.23267	857.99469	1730.66296	543.03223	807.10162	1269.18481	708.29150	1394.53284	1172.30615	765.93060	1191.33484	1174.43152	764.62134	1066.73645	1145.54504	741.36688	948.88324	1168.27637	666.52167	828.79486	1126.87012	708.57629	831.62219	1131.61426	674.86865	751.01782	1530.81628	649.66705	929.53979	1316.70105	630.50616	937.94940	1463.61072	830.09589	945.74036	1318.70715	815.75751	949.89124	1585.88562	712.94983	595.47736	1578.78467	741.96869	463.24350	1588.02454	881.15997	334.40085	1544.32996	1018.82013	158.49265	1487.34033	1066.06287	160.94583	1544.06958	932.27173	39.10849	1260.37109	636.76154	607.21088	1292.67908	600.29181	454.23553	1284.63501	633.66199	280.71933	1334.70337	642.89929	77.10570	1382.40015	692.55542	39.14901	1339.86890	502.54727	38.18673	1387.11060	631.73370	1710.03247	-3102.04639	1973.03967	1023.74139	-3140.81299	2012.54346	1022.13940			 
79	0.780	1475.10413	631.14813	1671.17700	1363.02161	614.16077	1676.30371	1463.86890	748.98535	1631.30945	1344.13611	734.18640	1635.46545	1418.40857	788.51935	1430.19067	1411.46436	810.95581	1135.36353	1421.67615	641.60718	1370.35327	1430.67480	590.78900	1218.31995	1339.64429	830.21680	1231.91956	1580.67249	708.65253	1397.74670	1670.87219	724.02271	1216.51550	1679.91565	720.46112	1063.95435	1706.99744	658.15607	967.62445	1688.46973	554.91412	875.02087	1715.04260	606.02417	857.35040	1729.05945	540.31030	805.89807	1267.58899	701.61835	1395.05469	1170.19031	758.75598	1191.72302	1172.33716	757.00134	1067.04749	1143.56494	733.05945	949.31757	1166.44873	657.14984	829.71985	1125.23877	699.24121	832.26343	1130.03308	665.36267	751.82953	1528.89124	642.55243	929.93726	1314.85156	623.52484	937.93982	1461.78455	823.29321	945.91821	1316.82471	808.75336	950.23236	1585.96582	700.90930	595.41138	1579.54248	728.07410	463.03152	1588.28662	869.57135	337.73477	1545.08325	1010.49365	164.32098	1487.78552	1056.98962	168.81395	1543.31885	930.66925	40.19888	1259.01648	632.09784	607.00256	1291.42261	597.45557	453.67197	1283.68604	632.47449	280.08112	1334.65625	642.54248	76.77804	1382.35840	692.48090	39.19631	1339.97925	502.27493	37.84339	1385.05444	625.15411	1710.31592	-3101.89160	1973.11621	1023.41132	-3140.66431	2012.53137	1022.09387			 
80	0.790	1473.17139	624.50031	1671.53040	1361.13159	607.37579	1676.55579	1462.00513	742.44788	1631.83765	1342.08545	727.48529	1635.78735	1416.77075	781.91174	1430.40503	1409.54114	804.05725	1135.55212	1420.07751	634.84344	1370.68958	1429.03674	583.82062	1218.90796	1337.69019	823.38440	1232.14343	1579.11890	702.06213	1397.97131	1669.00647	718.30890	1216.64063	1678.13550	715.44543	1064.17480	1705.29626	654.05066	967.32251	1686.85022	551.64258	873.76239	1713.47705	602.97003	856.59076	1727.38782	537.57220	804.50311	1265.92603	694.83673	1395.31995	1168.22681	751.38000	1192.06616	1170.26929	749.41937	1067.42090	1141.52637	724.59607	949.60992	1164.57776	648.00891	830.59247	1123.16138	690.18707	832.82886	1128.25562	655.74280	752.50891	1527.14038	635.81342	930.19836	1313.12268	616.85724	937.71722	1460.06873	816.63239	945.91357	1315.09753	802.03418	950.48608	1586.09290	688.87854	595.40662	1580.26196	714.02429	462.86493	1588.30823	857.22662	340.60538	1545.45313	1001.38263	170.09383	1488.54297	1047.56238	176.54248	1542.14429	927.14874	42.24325	1257.71179	627.54865	606.86444	1290.20032	594.62238	453.28503	1282.70190	631.23932	279.75592	1334.61169	642.47253	76.70058	1382.30090	692.48712	39.14382	1339.93127	502.07614	37.54499	1383.15540	618.36047	1710.54150	-3101.90210	1973.08997	1023.54395	-3140.66504	2012.45483	1021.98907			 
81	0.800	1471.44727	617.89740	1671.88965	1359.40759	600.60242	1676.76965	1460.15491	735.81946	1632.28210	1340.34473	720.77399	1636.10510	1415.14612	775.23566	1430.60083	1407.66577	797.22632	1135.77881	1418.58459	628.14514	1370.92712	1427.40491	577.15979	1218.96985	1335.85327	816.61530	1232.40027	1577.60498	695.53564	1398.12793	1667.00500	712.66125	1216.58765	1676.38000	710.48724	1064.32935	1703.71289	649.97327	967.08850	1685.23499	548.55444	872.36627	1711.97632	599.99438	855.76892	1725.91248	535.21149	803.01959	1264.35559	688.07660	1395.61194	1166.26538	743.78076	1192.31653	1168.10950	741.64069	1067.57349	1139.51807	716.21783	950.03363	1162.82349	638.83856	831.43683	1121.23242	680.90033	833.34808	1126.54797	645.82611	753.24554	1525.58643	629.19397	930.34485	1311.46094	610.43689	937.62128	1458.46790	810.16479	945.75909	1313.51233	795.58350	950.61749	1586.14124	676.90070	595.34375	1580.97937	700.10968	462.74731	1588.54114	844.30988	343.17383	1545.64490	991.53015	175.83499	1489.33215	1038.10229	183.75447	1540.87805	921.53424	45.40104	1256.49963	623.17242	606.68665	1288.81970	591.75940	452.72910	1281.76440	629.94348	279.50369	1334.25330	642.67694	76.52384	1382.26538	692.53815	39.19743	1340.05835	502.10455	37.55159	1381.29443	611.60510	1710.79114	-3101.90601	1973.19482	1023.49158	-3140.73901	2012.46924	1021.97827			 
